<svg width="25" height="18" viewBox="0 0 25 18" fill="none" xmlns="http://www.w3.org/2000/svg">
<path d="M22.5406 3.44686C22.4218 2.97227 22.1799 2.53743 21.8392 2.18626C21.4986 1.8351 21.0713 1.58004 20.6006 1.44686C18.8806 1.02686 12.0006 1.02686 12.0006 1.02686C12.0006 1.02686 5.12057 1.02686 3.40057 1.48686C2.92982 1.62004 2.50255 1.8751 2.16192 2.22626C1.82129 2.57743 1.57936 3.01227 1.46057 3.48686C1.14579 5.23241 0.991808 7.00317 1.00057 8.77686C0.989351 10.5639 1.14334 12.3482 1.46057 14.1069C1.59153 14.5667 1.83888 14.985 2.17872 15.3213C2.51855 15.6577 2.93939 15.9007 3.40057 16.0269C5.12057 16.4869 12.0006 16.4869 12.0006 16.4869C12.0006 16.4869 18.8806 16.4869 20.6006 16.0269C21.0713 15.8937 21.4986 15.6386 21.8392 15.2874C22.1799 14.9363 22.4218 14.5014 22.5406 14.0269C22.8529 12.2944 23.0069 10.5372 23.0006 8.77686C23.0118 6.98981 22.8578 5.20555 22.5406 3.44686Z" stroke="white" stroke-width="2" stroke-linecap="round" stroke-linejoin="round"/>
<path d="M9.75057 12.0469L15.5006 8.77686L9.75057 5.50686V12.0469Z" stroke="white" stroke-width="2" stroke-linecap="round" stroke-linejoin="round"/>
</svg>
