<svg width="348" height="222" viewBox="0 0 348 222" fill="none" xmlns="http://www.w3.org/2000/svg">
<path d="M8.41477 181C11.517 181 13.3118 179.076 13.3118 175.894C13.3118 172.727 11.517 170.818 8.51918 170.818H5.11861V181H8.41477ZM6.65483 179.658V172.161H8.42472C10.652 172.161 11.8004 173.493 11.8004 175.894C11.8004 178.305 10.652 179.658 8.33026 179.658H6.65483ZM18.394 181.154C20.0595 181.154 21.2377 180.334 21.5758 179.091L20.1689 178.837C19.9004 179.558 19.2541 179.926 18.4089 179.926C17.1362 179.926 16.2811 179.101 16.2413 177.629H21.6703V177.102C21.6703 174.343 20.0197 173.264 18.2896 173.264C16.1618 173.264 14.7598 174.885 14.7598 177.232C14.7598 179.603 16.1419 181.154 18.394 181.154ZM16.2463 176.516C16.3059 175.432 17.0914 174.492 18.2995 174.492C19.4529 174.492 20.2086 175.347 20.2136 176.516H16.2463ZM29.0419 175.228C28.7337 174.04 27.804 173.264 26.1534 173.264C24.4283 173.264 23.2053 174.174 23.2053 175.526C23.2053 176.61 23.8615 177.331 25.2933 177.649L26.5859 177.933C27.3217 178.097 27.6648 178.425 27.6648 178.902C27.6648 179.494 27.0334 179.956 26.0589 179.956C25.169 179.956 24.5973 179.573 24.4183 178.822L22.9815 179.041C23.2301 180.393 24.3537 181.154 26.0689 181.154C27.9134 181.154 29.1911 180.175 29.1911 178.793C29.1911 177.714 28.505 177.048 27.103 176.724L25.8899 176.446C25.0497 176.247 24.6868 175.964 24.6918 175.447C24.6868 174.86 25.3232 174.442 26.1683 174.442C27.093 174.442 27.5206 174.955 27.6946 175.467L29.0419 175.228ZM34.1167 181.154C35.7821 181.154 36.9604 180.334 37.2985 179.091L35.8915 178.837C35.623 179.558 34.9767 179.926 34.1316 179.926C32.8588 179.926 32.0037 179.101 31.964 177.629H37.3929V177.102C37.3929 174.343 35.7424 173.264 34.0123 173.264C31.8844 173.264 30.4824 174.885 30.4824 177.232C30.4824 179.603 31.8645 181.154 34.1167 181.154ZM31.9689 176.516C32.0286 175.432 32.8141 174.492 34.0222 174.492C35.1756 174.492 35.9313 175.347 35.9363 176.516H31.9689ZM40.5288 176.466C40.5288 175.248 41.2745 174.552 42.3086 174.552C43.3178 174.552 43.9293 175.213 43.9293 176.322V181H45.4158V176.143C45.4158 174.254 44.3768 173.264 42.8157 173.264C41.6673 173.264 40.9165 173.796 40.5636 174.607H40.4691V173.364H39.0423V181H40.5288V176.466ZM53.6687 173.364H52.0728L50.1438 179.24H50.0643L48.1303 173.364H46.5344L49.3086 181H50.8995L53.6687 173.364ZM58.0089 181.154C60.1616 181.154 61.5685 179.578 61.5685 177.217C61.5685 174.84 60.1616 173.264 58.0089 173.264C55.8562 173.264 54.4492 174.84 54.4492 177.217C54.4492 179.578 55.8562 181.154 58.0089 181.154ZM58.0138 179.906C56.6069 179.906 55.9506 178.678 55.9506 177.212C55.9506 175.75 56.6069 174.507 58.0138 174.507C59.4109 174.507 60.0671 175.75 60.0671 177.212C60.0671 178.678 59.4109 179.906 58.0138 179.906ZM64.7143 170.818H63.2278V181H64.7143V170.818ZM73.2468 173.364H71.6509L69.7219 179.24H69.6424L67.7085 173.364H66.1126L68.8867 181H70.4776L73.2468 173.364ZM77.6616 181.154C79.3271 181.154 80.5053 180.334 80.8434 179.091L79.4364 178.837C79.168 179.558 78.5217 179.926 77.6765 179.926C76.4038 179.926 75.5487 179.101 75.5089 177.629H80.9379V177.102C80.9379 174.343 79.2873 173.264 77.5572 173.264C75.4293 173.264 74.0273 174.885 74.0273 177.232C74.0273 179.603 75.4094 181.154 77.6616 181.154ZM75.5138 176.516C75.5735 175.432 76.359 174.492 77.5671 174.492C78.7205 174.492 79.4762 175.347 79.4812 176.516H75.5138ZM85.4458 181.149C86.8379 181.149 87.3848 180.299 87.6532 179.812H87.7775V181H89.2292V170.818H87.7427V174.602H87.6532C87.3848 174.129 86.8777 173.264 85.4558 173.264C83.6113 173.264 82.2541 174.721 82.2541 177.197C82.2541 179.668 83.5914 181.149 85.4458 181.149ZM85.774 179.881C84.4466 179.881 83.7555 178.713 83.7555 177.182C83.7555 175.665 84.4316 174.527 85.774 174.527C87.0716 174.527 87.7676 175.586 87.7676 177.182C87.7676 178.788 87.0566 179.881 85.774 179.881ZM94.5675 181.154C96.7202 181.154 98.1271 179.578 98.1271 177.217C98.1271 174.84 96.7202 173.264 94.5675 173.264C92.4148 173.264 91.0078 174.84 91.0078 177.217C91.0078 179.578 92.4148 181.154 94.5675 181.154ZM94.5724 179.906C93.1655 179.906 92.5092 178.678 92.5092 177.212C92.5092 175.75 93.1655 174.507 94.5724 174.507C95.9695 174.507 96.6257 175.75 96.6257 177.212C96.6257 178.678 95.9695 179.906 94.5724 179.906ZM99.7864 181H101.273V176.337C101.273 175.337 102.044 174.616 103.097 174.616C103.406 174.616 103.754 174.671 103.873 174.706V173.284C103.724 173.264 103.431 173.249 103.242 173.249C102.347 173.249 101.581 173.756 101.303 174.577H101.223V173.364H99.7864V181ZM110.977 181H112.529L114.671 173.374H114.751L116.894 181H118.44L121.269 170.818H119.648L117.669 178.708H117.575L115.512 170.818H113.911L111.847 178.703H111.753L109.769 170.818H108.154L110.977 181ZM125.089 181.154C126.755 181.154 127.933 180.334 128.271 179.091L126.864 178.837C126.596 179.558 125.949 179.926 125.104 179.926C123.831 179.926 122.976 179.101 122.937 177.629H128.366V177.102C128.366 174.343 126.715 173.264 124.985 173.264C122.857 173.264 121.455 174.885 121.455 177.232C121.455 179.603 122.837 181.154 125.089 181.154ZM122.942 176.516C123.001 175.432 123.787 174.492 124.995 174.492C126.148 174.492 126.904 175.347 126.909 176.516H122.942ZM130.134 181H131.586V179.812H131.71C131.979 180.299 132.526 181.149 133.918 181.149C135.767 181.149 137.109 179.668 137.109 177.197C137.109 174.721 135.747 173.264 133.903 173.264C132.486 173.264 131.974 174.129 131.71 174.602H131.621V170.818H130.134V181ZM131.591 177.182C131.591 175.586 132.287 174.527 133.585 174.527C134.932 174.527 135.608 175.665 135.608 177.182C135.608 178.713 134.912 179.881 133.585 179.881C132.307 179.881 131.591 178.788 131.591 177.182ZM8.29545 200.139C10.4382 200.139 11.696 198.205 11.696 194.909C11.696 191.628 10.4283 189.679 8.29545 189.679C6.16264 189.679 4.89489 191.628 4.89489 194.909C4.89489 198.205 6.1527 200.139 8.29545 200.139ZM8.29545 199.304C6.7294 199.304 5.79474 197.698 5.79474 194.909C5.79474 192.125 6.73438 190.499 8.29545 190.499C9.85653 190.499 10.7962 192.125 10.7962 194.909C10.7962 197.698 9.86151 199.304 8.29545 199.304ZM13.4759 197.812H18.2287V200H19.1136V197.812H20.4659V196.977H19.1136V189.818H18.0149L13.4759 197.057V197.812ZM18.2287 196.977H14.5149V196.913L18.1591 191.086H18.2287V196.977ZM29.2047 200.159C30.5918 200.159 31.2381 199.279 31.5513 198.583H31.6557V200H32.5208V189.818H31.6309V193.82H31.5513C31.248 193.134 30.6167 192.259 29.2196 192.259C27.3354 192.259 26.0627 193.85 26.0627 196.202C26.0627 198.573 27.3304 200.159 29.2047 200.159ZM29.3091 199.349C27.7878 199.349 26.9526 197.967 26.9526 196.187C26.9526 194.427 27.7779 193.065 29.3091 193.065C30.8006 193.065 31.6458 194.357 31.6458 196.187C31.6458 198.031 30.7907 199.349 29.3091 199.349ZM38.1287 200.159C39.66 200.159 40.6891 199.329 41.0371 198.369L40.1969 198.096C39.9036 198.782 39.2125 199.349 38.1287 199.349C36.5676 199.349 35.5783 198.21 35.5385 196.445H41.226V196.008C41.226 193.457 39.65 192.259 37.9945 192.259C36.0158 192.259 34.6486 193.915 34.6486 196.227C34.6486 198.543 35.9909 200.159 38.1287 200.159ZM35.5435 195.665C35.638 194.243 36.5975 193.065 37.9945 193.065C39.3617 193.065 40.3212 194.193 40.3212 195.665H35.5435ZM47.3125 200L48.4013 196.933H52.6768L53.7656 200H54.7401L51.0362 189.818H50.0419L46.3381 200H47.3125ZM48.6996 196.097L50.5043 191.026H50.5739L52.3786 196.097H48.6996ZM56.4851 200H57.3452V198.583H57.4545C57.7628 199.284 58.4091 200.159 59.8011 200.159C61.6754 200.159 62.9432 198.573 62.9432 196.202C62.9432 193.85 61.6705 192.259 59.7862 192.259C58.3892 192.259 57.7578 193.134 57.4545 193.82H57.375V189.818H56.4851V200ZM57.3601 196.187C57.3601 194.357 58.2003 193.065 59.6918 193.065C61.223 193.065 62.0533 194.427 62.0533 196.187C62.0533 197.967 61.2131 199.349 59.6918 199.349C58.2102 199.349 57.3601 198.031 57.3601 196.187ZM64.8871 200H65.772V195.068C65.772 193.935 66.642 193.114 67.8352 193.114C68.0689 193.114 68.2876 193.154 68.3672 193.164V192.264C68.2479 192.259 68.044 192.249 67.8999 192.249C66.9403 192.249 66.12 192.766 65.8118 193.537H65.7472V192.364H64.8871V200ZM69.8873 200H70.7772V192.364H69.8873V200ZM70.3397 191.051C70.7026 191.051 71.0059 190.763 71.0059 190.415C71.0059 190.067 70.7026 189.778 70.3397 189.778C69.9767 189.778 69.6784 190.067 69.6784 190.415C69.6784 190.763 69.9767 191.051 70.3397 191.051ZM74.0025 189.818H73.1175V200H74.0025V189.818ZM83.0309 200.159C84.418 200.159 85.0643 199.279 85.3775 198.583H85.4819V200H86.3469V189.818H85.457V193.82H85.3775C85.0742 193.134 84.4428 192.259 83.0458 192.259C81.1616 192.259 79.8888 193.85 79.8888 196.202C79.8888 198.573 81.1566 200.159 83.0309 200.159ZM83.1353 199.349C81.614 199.349 80.7788 197.967 80.7788 196.187C80.7788 194.427 81.604 193.065 83.1353 193.065C84.6268 193.065 85.4719 194.357 85.4719 196.187C85.4719 198.031 84.6168 199.349 83.1353 199.349ZM91.9549 200.159C93.4862 200.159 94.5153 199.329 94.8633 198.369L94.0231 198.096C93.7298 198.782 93.0387 199.349 91.9549 199.349C90.3938 199.349 89.4045 198.21 89.3647 196.445H95.0522V196.008C95.0522 193.457 93.4762 192.259 91.8207 192.259C89.842 192.259 88.4748 193.915 88.4748 196.227C88.4748 198.543 89.8171 200.159 91.9549 200.159ZM89.3697 195.665C89.4641 194.243 90.4237 193.065 91.8207 193.065C93.1879 193.065 94.1474 194.193 94.1474 195.665H89.3697ZM100.905 200H107.234V199.165H102.198V199.1L104.723 196.281C106.414 194.412 106.916 193.567 106.916 192.438C106.916 190.887 105.693 189.679 103.987 189.679C102.267 189.679 100.99 190.892 100.99 192.577H101.879C101.879 191.369 102.705 190.499 103.963 190.499C105.146 190.499 106.041 191.275 106.041 192.438C106.041 193.403 105.529 194.119 104.231 195.58L100.905 199.319V200ZM112.612 200.139C114.755 200.139 116.012 198.205 116.012 194.909C116.012 191.628 114.745 189.679 112.612 189.679C110.479 189.679 109.211 191.628 109.211 194.909C109.211 198.205 110.469 200.139 112.612 200.139ZM112.612 199.304C111.046 199.304 110.111 197.698 110.111 194.909C110.111 192.125 111.051 190.499 112.612 190.499C114.173 190.499 115.113 192.125 115.113 194.909C115.113 197.698 114.178 199.304 112.612 199.304ZM121.198 200.139C123.341 200.139 124.598 198.205 124.598 194.909C124.598 191.628 123.331 189.679 121.198 189.679C119.065 189.679 117.797 191.628 117.797 194.909C117.797 198.205 119.055 200.139 121.198 200.139ZM121.198 199.304C119.632 199.304 118.697 197.698 118.697 194.909C118.697 192.125 119.637 190.499 121.198 190.499C122.759 190.499 123.699 192.125 123.699 194.909C123.699 197.698 122.764 199.304 121.198 199.304ZM126.622 200H132.951V199.165H127.914V199.1L130.44 196.281C132.13 194.412 132.632 193.567 132.632 192.438C132.632 190.887 131.409 189.679 129.704 189.679C127.984 189.679 126.706 190.892 126.706 192.577H127.596C127.596 191.369 128.422 190.499 129.679 190.499C130.863 190.499 131.757 191.275 131.757 192.438C131.757 193.403 131.245 194.119 129.948 195.58L126.622 199.319V200ZM139.507 194.909C139.507 197.29 140.133 199.408 141.257 201.273H142.062C141.098 199.717 140.422 197.201 140.422 194.909C140.422 192.622 141.093 190.107 142.062 188.545H141.257C140.133 190.4 139.507 192.523 139.507 194.909ZM147.667 189.818H146.17L143.63 191.479V192.95L146.066 191.359H146.125V200H147.667V189.818ZM153.806 189.679C151.669 189.659 150.272 191.195 150.272 193.124C150.277 195.068 151.684 196.47 153.449 196.47C154.527 196.47 155.452 195.943 155.974 195.088H156.054C156.049 197.43 155.169 198.797 153.677 198.797C152.703 198.797 152.076 198.2 151.877 197.33H150.361C150.585 198.976 151.858 200.139 153.677 200.139C156.044 200.139 157.525 198.106 157.525 194.541C157.52 190.822 155.621 189.694 153.806 189.679ZM153.811 190.972C154.99 190.972 155.86 191.971 155.86 193.089C155.865 194.223 154.945 195.217 153.782 195.217C152.613 195.217 151.768 194.283 151.763 193.104C151.763 191.921 152.643 190.972 153.811 190.972ZM165.268 200.169C166.531 200.169 167.242 199.528 167.526 198.956H167.585V200H169.037V194.929C169.037 192.707 167.287 192.264 166.074 192.264C164.692 192.264 163.419 192.821 162.922 194.213L164.319 194.531C164.538 193.989 165.094 193.467 166.094 193.467C167.053 193.467 167.545 193.969 167.545 194.835V194.869C167.545 195.411 166.989 195.401 165.616 195.56C164.17 195.729 162.688 196.107 162.688 197.842C162.688 199.344 163.817 200.169 165.268 200.169ZM165.592 198.976C164.751 198.976 164.145 198.598 164.145 197.862C164.145 197.067 164.851 196.783 165.711 196.669C166.193 196.604 167.337 196.475 167.55 196.261V197.246C167.55 198.151 166.83 198.976 165.592 198.976ZM172.503 195.466C172.503 194.248 173.249 193.552 174.283 193.552C175.292 193.552 175.904 194.213 175.904 195.322V200H177.39V195.143C177.39 193.254 176.351 192.264 174.79 192.264C173.642 192.264 172.891 192.796 172.538 193.607H172.444V192.364H171.017V200H172.503V195.466ZM182.601 200.154C184.753 200.154 186.16 198.578 186.16 196.217C186.16 193.84 184.753 192.264 182.601 192.264C180.448 192.264 179.041 193.84 179.041 196.217C179.041 198.578 180.448 200.154 182.601 200.154ZM182.606 198.906C181.199 198.906 180.542 197.678 180.542 196.212C180.542 194.75 181.199 193.507 182.606 193.507C184.003 193.507 184.659 194.75 184.659 196.212C184.659 197.678 184.003 198.906 182.606 198.906ZM193.542 194.228C193.234 193.04 192.304 192.264 190.653 192.264C188.928 192.264 187.705 193.174 187.705 194.526C187.705 195.61 188.362 196.331 189.793 196.649L191.086 196.933C191.822 197.097 192.165 197.425 192.165 197.902C192.165 198.494 191.533 198.956 190.559 198.956C189.669 198.956 189.097 198.573 188.918 197.822L187.482 198.041C187.73 199.393 188.854 200.154 190.569 200.154C192.413 200.154 193.691 199.175 193.691 197.793C193.691 196.714 193.005 196.048 191.603 195.724L190.39 195.446C189.55 195.247 189.187 194.964 189.192 194.447C189.187 193.86 189.823 193.442 190.668 193.442C191.593 193.442 192.021 193.955 192.195 194.467L193.542 194.228ZM197.642 195.705C197.642 193.323 197.016 191.205 195.892 189.341H195.087C196.051 190.897 196.727 193.413 196.727 195.705C196.727 197.991 196.056 200.507 195.087 202.068H195.892C197.016 200.214 197.642 198.091 197.642 195.705ZM5.11861 219H6.65483V215.42H8.7429C11.1044 215.42 12.2727 213.994 12.2727 212.114C12.2727 210.24 11.1143 208.818 8.74787 208.818H5.11861V219ZM6.65483 214.118V210.136H8.58381C10.1051 210.136 10.7266 210.961 10.7266 212.114C10.7266 213.268 10.1051 214.118 8.60369 214.118H6.65483ZM18.7917 215.833C18.7967 217.131 17.8322 217.747 16.997 217.747C16.0772 217.747 15.4409 217.081 15.4409 216.042V211.364H13.9544V216.221C13.9544 218.115 14.9934 219.099 16.46 219.099C17.6085 219.099 18.389 218.493 18.742 217.678H18.8216V219H20.2832V211.364H18.7917V215.833ZM22.2805 219H23.767V214.337C23.767 213.337 24.5376 212.616 25.5916 212.616C25.8999 212.616 26.2479 212.671 26.3672 212.706V211.284C26.218 211.264 25.9247 211.249 25.7358 211.249C24.8409 211.249 24.0753 211.756 23.7969 212.577H23.7173V211.364H22.2805V219ZM30.6713 219.154C32.3368 219.154 33.5151 218.334 33.8532 217.091L32.4462 216.837C32.1777 217.558 31.5314 217.926 30.6863 217.926C29.4135 217.926 28.5584 217.101 28.5186 215.629H33.9476V215.102C33.9476 212.343 32.2971 211.264 30.5669 211.264C28.4391 211.264 27.0371 212.885 27.0371 215.232C27.0371 217.603 28.4192 219.154 30.6713 219.154ZM28.5236 214.516C28.5833 213.432 29.3688 212.492 30.5769 212.492C31.7303 212.492 32.486 213.347 32.4909 214.516H28.5236ZM35.4379 219H41.5678V217.707H37.4513V217.638L41.4286 212.447V211.364H35.5721V212.656H39.5742V212.726L35.4379 217.981V219ZM45.5439 219.169C46.8066 219.169 47.5176 218.528 47.801 217.956H47.8606V219H49.3123V213.929C49.3123 211.707 47.5623 211.264 46.3493 211.264C44.9672 211.264 43.6944 211.821 43.1973 213.213L44.5943 213.531C44.813 212.989 45.3699 212.467 46.3691 212.467C47.3287 212.467 47.8208 212.969 47.8208 213.835V213.869C47.8208 214.411 47.264 214.401 45.8919 214.56C44.4451 214.729 42.9636 215.107 42.9636 216.842C42.9636 218.344 44.0922 219.169 45.5439 219.169ZM45.867 217.976C45.0268 217.976 44.4203 217.598 44.4203 216.862C44.4203 216.067 45.1262 215.783 45.9863 215.669C46.4686 215.604 47.612 215.475 47.8258 215.261V216.246C47.8258 217.151 47.1049 217.976 45.867 217.976ZM53.2262 217.608H51.7944L51.7447 218.165C51.6303 219.512 51.3121 220.869 51.1779 221.486H52.2319C52.4705 220.835 52.9975 219.343 53.1516 218.15L53.2262 217.608ZM58.9858 219H60.522V215.147H62.6101C62.6449 215.147 62.6747 215.147 62.7095 215.147L64.7777 219H66.5277L64.2706 214.879C65.5185 214.416 66.1399 213.377 66.1399 212.01C66.1399 210.136 64.9766 208.818 62.6151 208.818H58.9858V219ZM60.522 213.825V210.136H62.451C63.9673 210.136 64.5938 210.857 64.5938 212.01C64.5938 213.158 63.9673 213.825 62.4709 213.825H60.522ZM76.2273 208.818H74.706V216.295H74.6115L69.4311 208.818H68.0092V219H69.5455V211.533H69.6399L74.8153 219H76.2273V208.818Z" fill="white"/>
<path d="M50.7102 22.4545H35.902V51.0057H35.4759L16.0866 22.4545H3.51562V77H18.3239V48.3423H18.6435L38.3523 77H50.7102V22.4545ZM57.7148 77H96.9194V65.0682H72.5231V55.6932H95.0018V43.7614H72.5231V34.3864H97.0259V22.4545H57.7148V77ZM104.37 77H143.575V65.0682H119.178V55.6932H141.657V43.7614H119.178V34.3864H143.681V22.4545H104.37V77ZM151.025 22.4545V77H165.514V45.2528H165.94L178.085 76.5739H186.821L198.966 45.4659H199.392V77H213.881V22.4545H195.45L182.773 53.3494H182.133L169.456 22.4545H151.025ZM235.707 22.4545H220.898V77H235.707V22.4545ZM256.894 77L260.036 66.5597H278.041L281.183 77H297.164L279.159 22.4545H258.918L240.914 77H256.894ZM263.392 55.4801L268.825 37.4759H269.252L274.685 55.4801H263.392ZM329.696 39.5H343.865C343.812 28.7933 335.556 21.7088 322.346 21.7088C309.375 21.7088 300.213 28.6868 300.293 39.0739C300.266 47.5966 306.179 52.3374 315.847 54.4148L321.28 55.5866C327.353 56.9183 329.43 58.4364 329.483 60.9134C329.43 63.6033 326.98 65.4943 322.239 65.4943C316.566 65.4943 313.21 62.831 312.971 57.8239H298.908C298.961 71.5135 308.23 77.6392 322.452 77.6392C336.275 77.6392 344.558 71.6733 344.611 60.9134C344.558 52.6037 339.604 46.771 327.566 44.1875L323.091 43.2287C317.924 42.1367 315.607 40.6186 315.74 38.0085C315.767 35.6115 317.765 33.8537 322.346 33.8537C327.14 33.8537 329.403 35.9577 329.696 39.5ZM3.51562 147H18.3239V128.996H23.4375L33.0256 147H49.1122L38.0327 126.652C43.8388 123.855 47.3011 118.555 47.3011 110.991C47.3011 99.3793 39.1779 92.4545 27.0597 92.4545H3.51562V147ZM18.3239 117.49V104.28H23.544C28.7376 104.28 31.8537 106.304 31.8537 110.991C31.8537 115.652 28.7376 117.49 23.544 117.49H18.3239ZM53.6133 147H92.8178V135.068H68.4215V125.693H90.9002V113.761H68.4215V104.386H92.9244V92.4545H53.6133V147ZM147.463 92.4545H132.655V121.006H132.229L112.84 92.4545H100.269V147H115.077V118.342H115.396L135.105 147H147.463V92.4545ZM168.637 147L171.78 136.56H189.784L192.927 147H208.907L190.902 92.4545H170.661L152.657 147H168.637ZM175.135 125.48L180.569 107.476H180.995L186.428 125.48H175.135ZM261.355 92.4545H246.547V121.006H246.12L226.731 92.4545H214.16V147H228.968V118.342H229.288L248.997 147H261.355V92.4545Z" fill="white"/>
<path d="M11.4011 6.21818C11.4011 3.79915 9.95341 2.33295 7.99602 2.33295C6.03125 2.33295 4.58722 3.79915 4.58722 6.21818C4.58722 8.63352 6.03125 10.1034 7.99602 10.1034C8.48352 10.1034 8.93778 10.0148 9.34403 9.84119L9.99034 10.6795H11.1574L10.1381 9.35C10.921 8.68892 11.4011 7.61051 11.4011 6.21818ZM7.61193 7.54773L8.68665 8.95852C8.47244 9.02869 8.23977 9.06193 7.99602 9.06193C6.69233 9.06193 5.72102 8.06108 5.72102 6.21818C5.72102 4.37528 6.69233 3.37443 7.99602 3.37443C9.29602 3.37443 10.271 4.37528 10.271 6.21818C10.271 7.25227 9.96449 8.02415 9.46222 8.49688L8.73466 7.54773H7.61193ZM16.3288 7.64744C16.3325 8.61136 15.616 9.06932 14.9955 9.06932C14.3123 9.06932 13.8396 8.57443 13.8396 7.80256V4.32727H12.7353V7.93551C12.7353 9.34261 13.5072 10.0739 14.5967 10.0739C15.4498 10.0739 16.0296 9.6233 16.2918 9.01761H16.3509V10H17.4367V4.32727H16.3288V7.64744ZM21.3653 10.1145C22.6026 10.1145 23.4778 9.50511 23.729 8.58182L22.6838 8.39347C22.4844 8.92898 22.0043 9.20227 21.3764 9.20227C20.431 9.20227 19.7957 8.5892 19.7662 7.49602H23.7991V7.10455C23.7991 5.05483 22.573 4.25341 21.2878 4.25341C19.7071 4.25341 18.6656 5.45739 18.6656 7.20057C18.6656 8.96222 19.6923 10.1145 21.3653 10.1145ZM19.7699 6.66875C19.8142 5.86364 20.3977 5.16563 21.2952 5.16563C22.152 5.16563 22.7134 5.80085 22.717 6.66875H19.7699ZM25.0244 10H26.1286V6.50256C26.1286 5.73807 26.6641 5.20625 27.292 5.20625C27.905 5.20625 28.3298 5.6125 28.3298 6.22926V10H29.4303V6.38438C29.4303 5.70114 29.8477 5.20625 30.5678 5.20625C31.1513 5.20625 31.6315 5.53125 31.6315 6.29943V10H32.7357V6.19602C32.7357 4.89972 32.0119 4.25341 30.9852 4.25341C30.169 4.25341 29.5559 4.64489 29.2826 5.25057H29.2235C28.9761 4.63011 28.4553 4.25341 27.6982 4.25341C26.9485 4.25341 26.3908 4.62642 26.1545 5.25057H26.0843V4.32727H25.0244V10ZM41.219 5.71222C40.99 4.82955 40.2994 4.25341 39.0732 4.25341C37.7917 4.25341 36.8832 4.92926 36.8832 5.93381C36.8832 6.73892 37.3707 7.27443 38.4343 7.5108L39.3945 7.72131C39.9411 7.84318 40.196 8.08693 40.196 8.44148C40.196 8.88097 39.7269 9.22443 39.0031 9.22443C38.342 9.22443 37.9173 8.94006 37.7843 8.38239L36.717 8.54489C36.9016 9.54943 37.7363 10.1145 39.0104 10.1145C40.3806 10.1145 41.3298 9.38693 41.3298 8.36023C41.3298 7.55881 40.8201 7.06392 39.7786 6.82386L38.8775 6.61705C38.2533 6.46932 37.9837 6.25881 37.9874 5.87472C37.9837 5.43892 38.4565 5.12869 39.0843 5.12869C39.7712 5.12869 40.0888 5.50909 40.2181 5.88949L41.219 5.71222ZM44.9334 10.1145C46.5325 10.1145 47.5777 8.94375 47.5777 7.18949C47.5777 5.42415 46.5325 4.25341 44.9334 4.25341C43.3342 4.25341 42.2891 5.42415 42.2891 7.18949C42.2891 8.94375 43.3342 10.1145 44.9334 10.1145ZM44.9371 9.1875C43.8919 9.1875 43.4044 8.27528 43.4044 7.1858C43.4044 6.1 43.8919 5.1767 44.9371 5.1767C45.9749 5.1767 46.4624 6.1 46.4624 7.1858C46.4624 8.27528 45.9749 9.1875 44.9371 9.1875ZM52.4038 7.64744C52.4075 8.61136 51.691 9.06932 51.0705 9.06932C50.3873 9.06932 49.9146 8.57443 49.9146 7.80256V4.32727H48.8103V7.93551C48.8103 9.34261 49.5822 10.0739 50.6717 10.0739C51.5248 10.0739 52.1046 9.6233 52.3668 9.01761H52.4259V10H53.5117V4.32727H52.4038V7.64744ZM60.1927 10.1145C61.4299 10.1145 62.3052 9.50511 62.5563 8.58182L61.5111 8.39347C61.3117 8.92898 60.8316 9.20227 60.2038 9.20227C59.2583 9.20227 58.6231 8.5892 58.5935 7.49602H62.6265V7.10455C62.6265 5.05483 61.4004 4.25341 60.1151 4.25341C58.5344 4.25341 57.493 5.45739 57.493 7.20057C57.493 8.96222 58.5197 10.1145 60.1927 10.1145ZM58.5972 6.66875C58.6415 5.86364 59.2251 5.16563 60.1225 5.16563C60.9793 5.16563 61.5407 5.80085 61.5444 6.66875H58.5972ZM67.4452 7.64744C67.4489 8.61136 66.7324 9.06932 66.1119 9.06932C65.4287 9.06932 64.956 8.57443 64.956 7.80256V4.32727H63.8517V7.93551C63.8517 9.34261 64.6236 10.0739 65.7131 10.0739C66.5662 10.0739 67.146 9.6233 67.4082 9.01761H67.4673V10H68.5531V4.32727H67.4452V7.64744ZM71.2445 7.82472H72.3008V7.75455C72.3155 6.90511 72.5593 6.52472 73.1871 6.13693C73.8482 5.73807 74.2545 5.1767 74.2545 4.34574C74.2545 3.14545 73.3459 2.33295 71.9905 2.33295C70.7459 2.33295 69.7488 3.06051 69.7008 4.39006H70.8235C70.8678 3.6071 71.4255 3.26364 71.9905 3.26364C72.6184 3.26364 73.128 3.68097 73.128 4.33466C73.128 4.88494 72.7846 5.27273 72.3451 5.54602C71.6582 5.96705 71.2519 6.38438 71.2445 7.75455V7.82472ZM71.8022 10.0702C72.2048 10.0702 72.5408 9.74148 72.5408 9.33153C72.5408 8.92898 72.2048 8.59659 71.8022 8.59659C71.3959 8.59659 71.0636 8.92898 71.0636 9.33153C71.0636 9.74148 71.3959 10.0702 71.8022 10.0702Z" fill="white"/>
</svg>
