<svg width="348" height="222" viewBox="0 0 348 222" fill="none" xmlns="http://www.w3.org/2000/svg">
<path d="M7.11222 181H8.66335L10.8061 173.374H10.8857L13.0284 181H14.5746L17.4034 170.818H15.7827L13.804 178.708H13.7095L11.6463 170.818H10.0455L7.98224 178.703H7.88778L5.90412 170.818H4.28835L7.11222 181ZM21.2241 181.154C22.8896 181.154 24.0678 180.334 24.4059 179.091L22.9989 178.837C22.7305 179.558 22.0842 179.926 21.239 179.926C19.9663 179.926 19.1112 179.101 19.0714 177.629H24.5004V177.102C24.5004 174.343 22.8498 173.264 21.1197 173.264C18.9918 173.264 17.5898 174.885 17.5898 177.232C17.5898 179.603 18.9719 181.154 21.2241 181.154ZM19.0763 176.516C19.136 175.432 19.9215 174.492 21.1296 174.492C22.283 174.492 23.0387 175.347 23.0437 176.516H19.0763ZM26.269 181H27.7207V179.812H27.845C28.1135 180.299 28.6603 181.149 30.0524 181.149C31.9018 181.149 33.2441 179.668 33.2441 177.197C33.2441 174.721 31.8819 173.264 30.0375 173.264C28.6206 173.264 28.1085 174.129 27.845 174.602H27.7555V170.818H26.269V181ZM27.7257 177.182C27.7257 175.586 28.4217 174.527 29.7193 174.527C31.0666 174.527 31.7427 175.665 31.7427 177.182C31.7427 178.713 31.0467 179.881 29.7193 179.881C28.4416 179.881 27.7257 178.788 27.7257 177.182ZM42.0339 181C45.1362 181 46.9309 179.076 46.9309 175.894C46.9309 172.727 45.1362 170.818 42.1383 170.818H38.7377V181H42.0339ZM40.274 179.658V172.161H42.0439C44.2711 172.161 45.4196 173.493 45.4196 175.894C45.4196 178.305 44.2711 179.658 41.9494 179.658H40.274ZM52.0131 181.154C53.6786 181.154 54.8569 180.334 55.195 179.091L53.788 178.837C53.5195 179.558 52.8732 179.926 52.0281 179.926C50.7553 179.926 49.9002 179.101 49.8604 177.629H55.2894V177.102C55.2894 174.343 53.6388 173.264 51.9087 173.264C49.7809 173.264 48.3789 174.885 48.3789 177.232C48.3789 179.603 49.761 181.154 52.0131 181.154ZM49.8654 176.516C49.9251 175.432 50.7106 174.492 51.9187 174.492C53.0721 174.492 53.8278 175.347 53.8327 176.516H49.8654ZM63.239 173.364H61.6431L59.7141 179.24H59.6346L57.7006 173.364H56.1048L58.8789 181H60.4698L63.239 173.364ZM67.6538 181.154C69.3192 181.154 70.4975 180.334 70.8356 179.091L69.4286 178.837C69.1602 179.558 68.5138 179.926 67.6687 179.926C66.396 179.926 65.5408 179.101 65.5011 177.629H70.93V177.102C70.93 174.343 69.2795 173.264 67.5494 173.264C65.4215 173.264 64.0195 174.885 64.0195 177.232C64.0195 179.603 65.4016 181.154 67.6538 181.154ZM65.506 176.516C65.5657 175.432 66.3512 174.492 67.5593 174.492C68.7127 174.492 69.4684 175.347 69.4734 176.516H65.506ZM74.0659 170.818H72.5794V181H74.0659V170.818ZM79.2823 181.154C81.435 181.154 82.842 179.578 82.842 177.217C82.842 174.84 81.435 173.264 79.2823 173.264C77.1296 173.264 75.7227 174.84 75.7227 177.217C75.7227 179.578 77.1296 181.154 79.2823 181.154ZM79.2873 179.906C77.8803 179.906 77.2241 178.678 77.2241 177.212C77.2241 175.75 77.8803 174.507 79.2873 174.507C80.6843 174.507 81.3406 175.75 81.3406 177.212C81.3406 178.678 80.6843 179.906 79.2873 179.906ZM84.5012 183.864H85.9877V179.812H86.0772C86.3457 180.299 86.8926 181.149 88.2846 181.149C90.1341 181.149 91.4764 179.668 91.4764 177.197C91.4764 174.721 90.1142 173.264 88.2697 173.264C86.8528 173.264 86.3407 174.129 86.0772 174.602H85.9529V173.364H84.5012V183.864ZM85.9579 177.182C85.9579 175.586 86.6539 174.527 87.9515 174.527C89.2988 174.527 89.975 175.665 89.975 177.182C89.975 178.713 89.2789 179.881 87.9515 179.881C86.6738 179.881 85.9579 178.788 85.9579 177.182ZM96.4331 181.154C98.0985 181.154 99.2768 180.334 99.6149 179.091L98.2079 178.837C97.9395 179.558 97.2931 179.926 96.448 179.926C95.1752 179.926 94.3201 179.101 94.2804 177.629H99.7093V177.102C99.7093 174.343 98.0588 173.264 96.3287 173.264C94.2008 173.264 92.7988 174.885 92.7988 177.232C92.7988 179.603 94.1809 181.154 96.4331 181.154ZM94.2853 176.516C94.345 175.432 95.1305 174.492 96.3386 174.492C97.492 174.492 98.2477 175.347 98.2527 176.516H94.2853ZM101.359 181H102.845V176.337C102.845 175.337 103.616 174.616 104.67 174.616C104.978 174.616 105.326 174.671 105.445 174.706V173.284C105.296 173.264 105.003 173.249 104.814 173.249C103.919 173.249 103.153 173.756 102.875 174.577H102.795V173.364H101.359V181ZM5.36719 200L6.45597 196.933H10.7315L11.8203 200H12.7947L9.09091 189.818H8.09659L4.39276 200H5.36719ZM6.75426 196.097L8.55895 191.026H8.62855L10.4332 196.097H6.75426ZM14.3409 202.864H15.2308V198.583H15.3104C15.6136 199.284 16.2699 200.159 17.657 200.159C19.5263 200.159 20.799 198.568 20.799 196.202C20.799 193.845 19.5312 192.259 17.642 192.259C16.2401 192.259 15.6186 193.134 15.3104 193.82H15.201V192.364H14.3409V202.864ZM15.2159 196.187C15.2159 194.357 16.0561 193.065 17.5476 193.065C19.0838 193.065 19.9091 194.427 19.9091 196.187C19.9091 197.967 19.0689 199.349 17.5476 199.349C16.071 199.349 15.2159 198.031 15.2159 196.187ZM22.7367 200H23.6216V195.068C23.6216 193.935 24.4917 193.114 25.6848 193.114C25.9185 193.114 26.1373 193.154 26.2168 193.164V192.264C26.0975 192.259 25.8936 192.249 25.7495 192.249C24.79 192.249 23.9696 192.766 23.6614 193.537H23.5968V192.364H22.7367V200ZM27.7369 200H28.6268V192.364H27.7369V200ZM28.1893 191.051C28.5522 191.051 28.8555 190.763 28.8555 190.415C28.8555 190.067 28.5522 189.778 28.1893 189.778C27.8263 189.778 27.5281 190.067 27.5281 190.415C27.5281 190.763 27.8263 191.051 28.1893 191.051ZM31.8521 189.818H30.9672V200H31.8521V189.818ZM41.2583 200.139C43.4011 200.139 44.6589 198.205 44.6589 194.909C44.6589 191.628 43.3912 189.679 41.2583 189.679C39.1255 189.679 37.8578 191.628 37.8578 194.909C37.8578 198.205 39.1156 200.139 41.2583 200.139ZM41.2583 199.304C39.6923 199.304 38.7576 197.698 38.7576 194.909C38.7576 192.125 39.6973 190.499 41.2583 190.499C42.8194 190.499 43.7591 192.125 43.7591 194.909C43.7591 197.698 42.8244 199.304 41.2583 199.304ZM46.4387 197.812H51.1916V200H52.0765V197.812H53.4288V196.977H52.0765V189.818H50.9778L46.4387 197.057V197.812ZM51.1916 196.977H47.4778V196.913L51.122 191.086H51.1916V196.977ZM56.4739 198.608H55.5094L55.4398 199.165C55.2608 200.512 54.9924 201.815 54.8631 202.486H55.5442C55.7828 201.785 56.2104 200.214 56.3844 199.14L56.4739 198.608ZM62.7195 200H69.0483V199.165H64.0121V199.1L66.5376 196.281C68.228 194.412 68.7301 193.567 68.7301 192.438C68.7301 190.887 67.5071 189.679 65.8018 189.679C64.0817 189.679 62.804 190.892 62.804 192.577H63.6939C63.6939 191.369 64.5192 190.499 65.777 190.499C66.9602 190.499 67.8551 191.275 67.8551 192.438C67.8551 193.403 67.343 194.119 66.0455 195.58L62.7195 199.319V200ZM74.4263 200.139C76.5691 200.139 77.8269 198.205 77.8269 194.909C77.8269 191.628 76.5591 189.679 74.4263 189.679C72.2935 189.679 71.0257 191.628 71.0257 194.909C71.0257 198.205 72.2836 200.139 74.4263 200.139ZM74.4263 199.304C72.8603 199.304 71.9256 197.698 71.9256 194.909C71.9256 192.125 72.8652 190.499 74.4263 190.499C75.9874 190.499 76.927 192.125 76.927 194.909C76.927 197.698 75.9924 199.304 74.4263 199.304ZM83.0123 200.139C85.155 200.139 86.4128 198.205 86.4128 194.909C86.4128 191.628 85.1451 189.679 83.0123 189.679C80.8794 189.679 79.6117 191.628 79.6117 194.909C79.6117 198.205 80.8695 200.139 83.0123 200.139ZM83.0123 199.304C81.4462 199.304 80.5115 197.698 80.5115 194.909C80.5115 192.125 81.4512 190.499 83.0123 190.499C84.5733 190.499 85.513 192.125 85.513 194.909C85.513 197.698 84.5783 199.304 83.0123 199.304ZM88.4363 200H94.7651V199.165H89.7289V199.1L92.2544 196.281C93.9448 194.412 94.4469 193.567 94.4469 192.438C94.4469 190.887 93.2239 189.679 91.5186 189.679C89.7985 189.679 88.5208 190.892 88.5208 192.577H89.4107C89.4107 191.369 90.236 190.499 91.4938 190.499C92.677 190.499 93.5719 191.275 93.5719 192.438C93.5719 193.403 93.0598 194.119 91.7623 195.58L88.4363 199.319V200ZM101.321 194.909C101.321 197.29 101.948 199.408 103.071 201.273H103.877C102.912 199.717 102.236 197.201 102.236 194.909C102.236 192.622 102.907 190.107 103.877 188.545H103.071C101.948 190.4 101.321 192.523 101.321 194.909ZM108.914 189.818H107.945L105.539 191.414V192.379L107.925 190.793H107.985V200H108.914V189.818ZM115.069 189.679C113.12 189.664 111.847 191.19 111.847 193C111.847 194.914 113.254 196.316 114.955 196.316C116.048 196.316 117.018 195.724 117.495 194.83H117.56C117.56 197.693 116.595 199.304 114.93 199.304C113.771 199.304 113.056 198.523 112.877 197.435H111.962C112.151 199.04 113.284 200.139 114.93 200.139C117.276 200.139 118.435 197.793 118.435 194.467C118.435 190.907 116.759 189.694 115.069 189.679ZM115.069 190.514C116.337 190.514 117.276 191.548 117.391 192.94C117.49 194.278 116.421 195.481 115.069 195.481C113.742 195.481 112.747 194.387 112.747 193C112.747 191.628 113.742 190.514 115.069 190.514ZM125.127 202.864C126.081 202.864 126.782 202.317 127.19 201.208L130.426 192.379L129.462 192.364L127.195 198.832H127.125L124.858 192.364H123.899L126.708 200.075L126.429 200.85C126.007 202.004 125.41 202.207 124.51 201.924L124.271 202.705C124.45 202.789 124.779 202.864 125.127 202.864ZM134.967 200.159C136.498 200.159 137.527 199.329 137.875 198.369L137.035 198.096C136.741 198.782 136.05 199.349 134.967 199.349C133.406 199.349 132.416 198.21 132.376 196.445H138.064V196.008C138.064 193.457 136.488 192.259 134.832 192.259C132.854 192.259 131.487 193.915 131.487 196.227C131.487 198.543 132.829 200.159 134.967 200.159ZM132.381 195.665C132.476 194.243 133.435 193.065 134.832 193.065C136.2 193.065 137.159 194.193 137.159 195.665H132.381ZM142.147 200.174C143.42 200.174 144.195 199.468 144.513 198.792H144.568V200H145.453V194.815C145.453 192.766 143.912 192.259 142.743 192.259C141.575 192.259 140.372 192.722 139.855 193.969L140.695 194.273C140.974 193.616 141.665 193.055 142.768 193.055C143.927 193.055 144.568 193.691 144.568 194.735V194.914C144.568 195.491 143.852 195.501 142.569 195.66C140.844 195.874 139.636 196.356 139.636 197.867C139.636 199.339 140.76 200.174 142.147 200.174ZM142.266 199.364C141.267 199.364 140.521 198.832 140.521 197.907C140.521 196.982 141.277 196.594 142.569 196.435C143.196 196.361 144.309 196.222 144.568 195.968V197.072C144.568 198.325 143.678 199.364 142.266 199.364ZM147.807 200H148.692V195.068C148.692 193.935 149.562 193.114 150.755 193.114C150.989 193.114 151.208 193.154 151.287 193.164V192.264C151.168 192.259 150.964 192.249 150.82 192.249C149.86 192.249 149.04 192.766 148.732 193.537H148.667V192.364H147.807V200ZM157.928 194.039C157.555 192.935 156.74 192.259 155.343 192.259C153.801 192.259 152.683 193.139 152.683 194.397C152.683 195.421 153.304 196.117 154.632 196.435L155.88 196.734C156.72 196.933 157.123 197.365 157.123 197.977C157.123 198.772 156.362 199.364 155.189 199.364C154.145 199.364 153.493 198.891 153.279 197.987L152.429 198.195C152.698 199.468 153.707 200.159 155.203 200.159C156.884 200.159 158.037 199.234 158.037 197.937C158.037 196.918 157.396 196.237 156.118 195.923L154.965 195.64C154.015 195.401 153.573 195.018 153.573 194.357C153.573 193.582 154.314 193.04 155.343 193.04C156.372 193.04 156.879 193.582 157.118 194.268L157.928 194.039ZM166.881 200.159C168.859 200.159 170.241 198.543 170.241 196.217C170.241 193.875 168.859 192.259 166.881 192.259C164.902 192.259 163.52 193.875 163.52 196.217C163.52 198.543 164.902 200.159 166.881 200.159ZM166.881 199.349C165.295 199.349 164.41 197.927 164.41 196.217C164.41 194.506 165.295 193.065 166.881 193.065C168.466 193.065 169.351 194.506 169.351 196.217C169.351 197.927 168.466 199.349 166.881 199.349ZM173.069 189.818H172.184V200H173.069V189.818ZM178.16 200.159C179.547 200.159 180.193 199.279 180.506 198.583H180.611V200H181.476V189.818H180.586V193.82H180.506C180.203 193.134 179.572 192.259 178.175 192.259C176.29 192.259 175.018 193.85 175.018 196.202C175.018 198.573 176.286 200.159 178.16 200.159ZM178.264 199.349C176.743 199.349 175.908 197.967 175.908 196.187C175.908 194.427 176.733 193.065 178.264 193.065C179.756 193.065 180.601 194.357 180.601 196.187C180.601 198.031 179.746 199.349 178.264 199.349ZM186.144 195.705C186.144 193.323 185.518 191.205 184.394 189.341H183.589C184.553 190.897 185.229 193.413 185.229 195.705C185.229 197.991 184.558 200.507 183.589 202.068H184.394C185.518 200.214 186.144 198.091 186.144 195.705ZM5.11861 219H6.65483V215.42H8.7429C11.1044 215.42 12.2727 213.994 12.2727 212.114C12.2727 210.24 11.1143 208.818 8.74787 208.818H5.11861V219ZM6.65483 214.118V210.136H8.58381C10.1051 210.136 10.7266 210.961 10.7266 212.114C10.7266 213.268 10.1051 214.118 8.60369 214.118H6.65483ZM18.7917 215.833C18.7967 217.131 17.8322 217.747 16.997 217.747C16.0772 217.747 15.4409 217.081 15.4409 216.042V211.364H13.9544V216.221C13.9544 218.115 14.9934 219.099 16.46 219.099C17.6085 219.099 18.389 218.493 18.742 217.678H18.8216V219H20.2832V211.364H18.7917V215.833ZM22.2805 219H23.767V214.337C23.767 213.337 24.5376 212.616 25.5916 212.616C25.8999 212.616 26.2479 212.671 26.3672 212.706V211.284C26.218 211.264 25.9247 211.249 25.7358 211.249C24.8409 211.249 24.0753 211.756 23.7969 212.577H23.7173V211.364H22.2805V219ZM30.6713 219.154C32.3368 219.154 33.5151 218.334 33.8532 217.091L32.4462 216.837C32.1777 217.558 31.5314 217.926 30.6863 217.926C29.4135 217.926 28.5584 217.101 28.5186 215.629H33.9476V215.102C33.9476 212.343 32.2971 211.264 30.5669 211.264C28.4391 211.264 27.0371 212.885 27.0371 215.232C27.0371 217.603 28.4192 219.154 30.6713 219.154ZM28.5236 214.516C28.5833 213.432 29.3688 212.492 30.5769 212.492C31.7303 212.492 32.486 213.347 32.4909 214.516H28.5236ZM35.4379 219H41.5678V217.707H37.4513V217.638L41.4286 212.447V211.364H35.5721V212.656H39.5742V212.726L35.4379 217.981V219ZM45.5439 219.169C46.8066 219.169 47.5176 218.528 47.801 217.956H47.8606V219H49.3123V213.929C49.3123 211.707 47.5623 211.264 46.3493 211.264C44.9672 211.264 43.6944 211.821 43.1973 213.213L44.5943 213.531C44.813 212.989 45.3699 212.467 46.3691 212.467C47.3287 212.467 47.8208 212.969 47.8208 213.835V213.869C47.8208 214.411 47.264 214.401 45.8919 214.56C44.4451 214.729 42.9636 215.107 42.9636 216.842C42.9636 218.344 44.0922 219.169 45.5439 219.169ZM45.867 217.976C45.0268 217.976 44.4203 217.598 44.4203 216.862C44.4203 216.067 45.1262 215.783 45.9863 215.669C46.4686 215.604 47.612 215.475 47.8258 215.261V216.246C47.8258 217.151 47.1049 217.976 45.867 217.976ZM53.2262 217.608H51.7944L51.7447 218.165C51.6303 219.512 51.3121 220.869 51.1779 221.486H52.2319C52.4705 220.835 52.9975 219.343 53.1516 218.15L53.2262 217.608ZM58.9858 219H60.522V215.147H62.6101C62.6449 215.147 62.6747 215.147 62.7095 215.147L64.7777 219H66.5277L64.2706 214.879C65.5185 214.416 66.1399 213.377 66.1399 212.01C66.1399 210.136 64.9766 208.818 62.6151 208.818H58.9858V219ZM60.522 213.825V210.136H62.451C63.9673 210.136 64.5938 210.857 64.5938 212.01C64.5938 213.158 63.9673 213.825 62.4709 213.825H60.522ZM76.2273 208.818H74.706V216.295H74.6115L69.4311 208.818H68.0092V219H69.5455V211.533H69.6399L74.8153 219H76.2273V208.818Z" fill="white"/>
<path d="M50.7102 22.4545H35.902V51.0057H35.4759L16.0866 22.4545H3.51562V77H18.3239V48.3423H18.6435L38.3523 77H50.7102V22.4545ZM57.7148 77H96.9194V65.0682H72.5231V55.6932H95.0018V43.7614H72.5231V34.3864H97.0259V22.4545H57.7148V77ZM104.37 77H143.575V65.0682H119.178V55.6932H141.657V43.7614H119.178V34.3864H143.681V22.4545H104.37V77ZM151.025 22.4545V77H165.514V45.2528H165.94L178.085 76.5739H186.821L198.966 45.4659H199.392V77H213.881V22.4545H195.45L182.773 53.3494H182.133L169.456 22.4545H151.025ZM235.707 22.4545H220.898V77H235.707V22.4545ZM256.894 77L260.036 66.5597H278.041L281.183 77H297.164L279.159 22.4545H258.918L240.914 77H256.894ZM263.392 55.4801L268.825 37.4759H269.252L274.685 55.4801H263.392ZM329.696 39.5H343.865C343.812 28.7933 335.556 21.7088 322.346 21.7088C309.375 21.7088 300.213 28.6868 300.293 39.0739C300.266 47.5966 306.179 52.3374 315.847 54.4148L321.28 55.5866C327.353 56.9183 329.43 58.4364 329.483 60.9134C329.43 63.6033 326.98 65.4943 322.239 65.4943C316.566 65.4943 313.21 62.831 312.971 57.8239H298.908C298.961 71.5135 308.23 77.6392 322.452 77.6392C336.275 77.6392 344.558 71.6733 344.611 60.9134C344.558 52.6037 339.604 46.771 327.566 44.1875L323.091 43.2287C317.924 42.1367 315.607 40.6186 315.74 38.0085C315.767 35.6115 317.765 33.8537 322.346 33.8537C327.14 33.8537 329.403 35.9577 329.696 39.5ZM3.51562 147H18.3239V128.996H23.4375L33.0256 147H49.1122L38.0327 126.652C43.8388 123.855 47.3011 118.555 47.3011 110.991C47.3011 99.3793 39.1779 92.4545 27.0597 92.4545H3.51562V147ZM18.3239 117.49V104.28H23.544C28.7376 104.28 31.8537 106.304 31.8537 110.991C31.8537 115.652 28.7376 117.49 23.544 117.49H18.3239ZM53.6133 147H92.8178V135.068H68.4215V125.693H90.9002V113.761H68.4215V104.386H92.9244V92.4545H53.6133V147ZM147.463 92.4545H132.655V121.006H132.229L112.84 92.4545H100.269V147H115.077V118.342H115.396L135.105 147H147.463V92.4545ZM168.637 147L171.78 136.56H189.784L192.927 147H208.907L190.902 92.4545H170.661L152.657 147H168.637ZM175.135 125.48L180.569 107.476H180.995L186.428 125.48H175.135ZM261.355 92.4545H246.547V121.006H246.12L226.731 92.4545H214.16V147H228.968V118.342H229.288L248.997 147H261.355V92.4545Z" fill="white"/>
<path d="M6.31193 10H7.4642L9.05597 4.33466H9.11506L10.7068 10H11.8554L13.9568 2.43636H12.7528L11.283 8.29744H11.2128L9.68011 2.43636H8.49091L6.95824 8.29375H6.88807L5.41449 2.43636H4.2142L6.31193 10ZM16.013 6.63182C16.013 5.72699 16.5854 5.20994 17.3721 5.20994C18.1329 5.20994 18.5871 5.69375 18.5871 6.52472V10H19.6914V6.39176C19.6914 4.97727 18.9158 4.25341 17.7488 4.25341C16.8661 4.25341 16.3343 4.6375 16.0684 5.25057H15.9982V2.43636H14.9087V10H16.013V6.63182ZM23.5545 10.1145C25.1536 10.1145 26.1988 8.94375 26.1988 7.18949C26.1988 5.42415 25.1536 4.25341 23.5545 4.25341C21.9553 4.25341 20.9102 5.42415 20.9102 7.18949C20.9102 8.94375 21.9553 10.1145 23.5545 10.1145ZM23.5582 9.1875C22.513 9.1875 22.0255 8.27528 22.0255 7.1858C22.0255 6.1 22.513 5.1767 23.5582 5.1767C24.596 5.1767 25.0835 6.1 25.0835 7.1858C25.0835 8.27528 24.596 9.1875 23.5582 9.1875ZM31.8346 10.1256C32.7727 10.1256 33.3008 9.64915 33.5113 9.22443H33.5556V10H34.634V6.23295C34.634 4.5821 33.334 4.25341 32.4329 4.25341C31.4062 4.25341 30.4607 4.66705 30.0914 5.70114L31.1292 5.9375C31.2917 5.53494 31.7053 5.14716 32.4477 5.14716C33.1604 5.14716 33.5261 5.52017 33.5261 6.16278V6.18864C33.5261 6.59119 33.1124 6.58381 32.0931 6.70199C31.0184 6.82756 29.9178 7.10824 29.9178 8.39716C29.9178 9.5125 30.7562 10.1256 31.8346 10.1256ZM32.0746 9.2392C31.4505 9.2392 30.9999 8.95852 30.9999 8.41193C30.9999 7.82102 31.5244 7.61051 32.1633 7.52557C32.5215 7.47756 33.371 7.38153 33.5298 7.22273V7.95398C33.5298 8.62614 32.9942 9.2392 32.0746 9.2392ZM36.1048 10H37.2091V6.50256C37.2091 5.73807 37.7446 5.20625 38.3724 5.20625C38.9855 5.20625 39.4102 5.6125 39.4102 6.22926V10H40.5108V6.38438C40.5108 5.70114 40.9281 5.20625 41.6483 5.20625C42.2318 5.20625 42.7119 5.53125 42.7119 6.29943V10H43.8162V6.19602C43.8162 4.89972 43.0923 4.25341 42.0656 4.25341C41.2494 4.25341 40.6364 4.64489 40.3631 5.25057H40.304C40.0565 4.63011 39.5358 4.25341 38.7787 4.25341C38.029 4.25341 37.4713 4.62642 37.2349 5.25057H37.1648V4.32727H36.1048V10ZM49.2784 2.43636H48.1372V10H49.2784V2.43636ZM52.0594 7.82472H53.1156V7.75455C53.1304 6.90511 53.3741 6.52472 54.002 6.13693C54.6631 5.73807 55.0693 5.1767 55.0693 4.34574C55.0693 3.14545 54.1608 2.33295 52.8054 2.33295C51.5608 2.33295 50.5636 3.06051 50.5156 4.39006H51.6384C51.6827 3.6071 52.2403 3.26364 52.8054 3.26364C53.4332 3.26364 53.9429 3.68097 53.9429 4.33466C53.9429 4.88494 53.5994 5.27273 53.1599 5.54602C52.473 5.96705 52.0668 6.38438 52.0594 7.75455V7.82472ZM52.617 10.0702C53.0196 10.0702 53.3557 9.74148 53.3557 9.33153C53.3557 8.92898 53.0196 8.59659 52.617 8.59659C52.2108 8.59659 51.8784 8.92898 51.8784 9.33153C51.8784 9.74148 52.2108 10.0702 52.617 10.0702Z" fill="white"/>
</svg>
