<svg width="881" height="360" viewBox="0 0 881 360" fill="none" xmlns="http://www.w3.org/2000/svg">
<path d="M134.801 17.5455V163H104.972L47.0881 79.0511H46.1648V163H11.0085V17.5455H41.2642L98.5085 101.352H99.7159V17.5455H134.801ZM150.907 163V17.5455H252.327V46.0966H186.063V75.9261H247.143V104.548H186.063V134.449H252.327V163H150.907ZM268.344 163V17.5455H369.765V46.0966H303.501V75.9261H364.58V104.548H303.501V134.449H369.765V163H268.344ZM385.782 17.5455H429.319L466.251 107.602H467.955L504.887 17.5455H548.424V163H514.191V73.6534H512.984L478.04 162.077H456.165L421.222 73.1562H420.015V163H385.782V17.5455ZM599.509 17.5455V163H564.352V17.5455H599.509ZM647.042 163H609.258L658.335 17.5455H705.138L754.215 163H716.431L682.269 54.1932H681.133L647.042 163ZM641.999 105.756H720.977V132.46H641.999V105.756ZM838.006 61.1534C837.532 55.9451 835.425 51.8968 831.685 49.0085C827.991 46.0729 822.712 44.6051 815.847 44.6051C811.301 44.6051 807.513 45.197 804.483 46.3807C801.453 47.5644 799.18 49.1979 797.665 51.2812C796.15 53.3172 795.368 55.661 795.321 58.3125C795.226 60.4905 795.652 62.4081 796.599 64.0653C797.594 65.7225 799.014 67.1903 800.861 68.4688C802.755 69.6998 805.027 70.7888 807.679 71.7358C810.33 72.6828 813.313 73.5114 816.628 74.2216L829.128 77.0625C836.325 78.625 842.67 80.7083 848.162 83.3125C853.702 85.9167 858.342 89.018 862.082 92.6165C865.87 96.215 868.735 100.358 870.676 105.045C872.617 109.733 873.612 114.989 873.659 120.812C873.612 129.998 871.292 137.882 866.699 144.463C862.106 151.045 855.501 156.087 846.884 159.591C838.313 163.095 827.968 164.847 815.847 164.847C803.678 164.847 793.072 163.024 784.028 159.378C774.985 155.732 767.954 150.192 762.935 142.759C757.916 135.325 755.335 125.926 755.193 114.562H788.858C789.142 119.25 790.397 123.156 792.622 126.281C794.848 129.406 797.902 131.774 801.784 133.384C805.714 134.993 810.259 135.798 815.42 135.798C820.155 135.798 824.18 135.159 827.494 133.881C830.856 132.602 833.437 130.827 835.236 128.554C837.035 126.281 837.958 123.677 838.006 120.741C837.958 117.995 837.106 115.652 835.449 113.71C833.792 111.722 831.235 110.017 827.778 108.597C824.369 107.129 820.013 105.779 814.71 104.548L799.511 100.997C786.917 98.1089 776.997 93.4451 769.753 87.0057C762.509 80.5189 758.91 71.7595 758.957 60.7273C758.91 51.7311 761.325 43.8475 766.202 37.0767C771.079 30.3059 777.826 25.0265 786.443 21.2386C795.061 17.4508 804.885 15.5568 815.918 15.5568C827.187 15.5568 836.964 17.4744 845.25 21.3097C853.583 25.0975 860.046 30.4242 864.639 37.2898C869.232 44.1553 871.576 52.1098 871.67 61.1534H838.006ZM11.0085 343V197.545H71.0938C81.9839 197.545 91.3826 199.51 99.2898 203.44C107.244 207.323 113.376 212.91 117.685 220.202C121.993 227.446 124.148 236.04 124.148 245.983C124.148 256.068 121.946 264.638 117.543 271.693C113.139 278.701 106.889 284.051 98.7926 287.744C90.696 291.39 81.108 293.213 70.0284 293.213H32.0312V265.514H63.4943C68.7974 265.514 73.2244 264.828 76.7756 263.455C80.3741 262.034 83.0966 259.903 84.9432 257.062C86.7898 254.174 87.7131 250.481 87.7131 245.983C87.7131 241.485 86.7898 237.768 84.9432 234.832C83.0966 231.849 80.3741 229.624 76.7756 228.156C73.1771 226.641 68.75 225.884 63.4943 225.884H46.1648V343H11.0085ZM92.8977 276.523L129.119 343H90.767L55.2557 276.523H92.8977ZM137.43 343V197.545H238.851V226.097H172.587V255.926H233.666V284.548H172.587V314.449H238.851V343H137.43ZM378.661 197.545V343H348.831L290.947 259.051H290.024V343H254.868V197.545H285.124L342.368 281.352H343.575V197.545H378.661ZM426.229 343H388.445L437.522 197.545H484.326L533.403 343H495.619L461.457 234.193H460.32L426.229 343ZM421.187 285.756H500.164V312.46H421.187V285.756ZM666.856 197.545V343H637.026L579.143 259.051H578.219V343H543.063V197.545H573.319L630.563 281.352H631.771V197.545H666.856Z" fill="white"/>
<path d="M702.493 345.06C697.379 345.06 693 343.26 689.354 339.662C685.755 336.063 683.98 331.707 684.027 326.594C683.98 321.575 685.755 317.29 689.354 313.739C693 310.14 697.379 308.341 702.493 308.341C707.322 308.341 711.584 310.14 715.277 313.739C719.018 317.29 720.911 321.575 720.959 326.594C720.911 330.003 720.012 333.104 718.26 335.898C716.555 338.691 714.306 340.917 711.513 342.574C708.767 344.231 705.76 345.06 702.493 345.06Z" fill="#00BEFF"/>
</svg>
